# xmcd CD database file
#
# Track frame offsets:
#	150
#	27000
#	55676
#	75441
#	88649
#	115442
#	145385
#	157720
#	181674
#	211280
#	229963
#	250120
#	264949
#	283521
#	303280
#
# Disc length: 4229 seconds
#
# Revision: 0
# Processed by: cddbd v1.5.1PL0 Copyright (c) Steve Scherf et al.
# Submitted via: CDex 1.51
#
DISCID=b710830f
DTITLE=Various Artist - Viva Jazzanova II [CD2]
DYEAR=1900
DGENRE=Jazz
TTITLE0=Ray Barretto-El Negro Y Ray
TTITLE1=Adela Dalto-Guajiro Mio
TTITLE2=Pucho and The Latin Soul Brothers-Rip A Dip
TTITLE3=Sarah Vaughan Featuring A.C. Jobim-Triste
TTITLE4=Rick Trevino-El Tira Y Jala
TTITLE5=Manny Oquendo and Libre-El Son
TTITLE6=Ella Fitzgerald-Water To Drink (Agua De Beber)
TTITLE7=Chico O'Farill-Carambola
TTITLE8=Steve Berrios and Son Bacheche-El Nino Rey
TTITLE9=Jose Roberto Bertrami-E Nada Mais
TTITLE10=Cal Tjader Featuring Egberto Gismonti-Amazonas
TTITLE11=Dom Um Romao-Chovendo Na Roseira (Children's Games)
TTITLE12=Claudio Roditi-Feel Good
TTITLE13=Johnny "Hammond" Smith-The Sin-In
TTITLE14=Azymuth-Born Tempo
EXTD=
EXTT0=
EXTT1=
EXTT2=
EXTT3=
EXTT4=
EXTT5=
EXTT6=
EXTT7=
EXTT8=
EXTT9=
EXTT10=
EXTT11=
EXTT12=
EXTT13=
EXTT14=
PLAYORDER=
